 <svg  version="1.0" xmlns="http://www.w3.org/2000/svg"  width="591.000000pt" height="591.000000pt" viewBox="0 0 591.000000 591.000000"  preserveAspectRatio="xMidYMid meet">  <g transform="translate(0.000000,591.000000) scale(0.100000,-0.100000)" fill="#e1145c" stroke="none"> <path d="M1856 5443 c-3 -4 -6 -12 -6 -20 0 -13 -63 -105 -116 -170 -15 -18 -32 -41 -38 -52 -21 -39 -91 -136 -103 -144 -7 -4 -13 -13 -13 -19 0 -5 -30 -51 -68 -102 -37 -50 -93 -129 -125 -176 -32 -47 -75 -106 -97 -130 -22 -25 -40 -48 -40 -52 0 -7 -76 -122 -99 -150 -39 -48 -141 -195 -141 -205 0 -3 -13 -22 -30 -43 -16 -21 -30 -40 -30 -44 0 -3 -20 -39 -45 -79 -25 -41 -45 -79 -45 -85 0 -5 -7 -23 -15 -38 -8 -16 -15 -38 -15 -49 0 -12 -4 -25 -9 -30 -16 -19 -34 -190 -33 -320 0 -181 30 -335 83 -432 18 -32 42 -77 55 -101 12 -23 36 -59 51 -80 16 -20 37 -50 48 -67 20 -32 119 -135 129 -135 8 0 17 -7 72 -54 23 -20 45 -36 49 -36 4 0 35 -17 69 -39 34 -21 72 -42 86 -46 14 -4 28 -12 31 -18 4 -5 27 -14 50 -18 24 -5 78 -15 119 -24 242 -49 558 -14 733 81 15 9 38 21 50 27 12 7 38 24 58 40 20 15 39 27 43 27 9 0 124 98 147 125 16 18 33 20 199 25 l181 5 -1 388 -1 387 30 0 c21 0 34 -7 42 -22 14 -28 117 -166 141 -191 25 -24 128 -165 128 -174 0 -5 19 -28 41 -53 59 -66 102 -118 143 -178 20 -29 44 -61 54 -71 9 -10 30 -35 45 -55 l28 -36 152 0 c84 0 158 4 165 9 10 6 14 50 15 177 2 157 3 169 21 172 10 2 23 -3 28 -12 5 -9 16 -16 23 -16 8 0 15 -4 15 -9 0 -5 8 -12 18 -16 9 -3 38 -24 63 -48 25 -23 57 -49 69 -57 13 -8 40 -30 60 -47 21 -18 41 -33 46 -33 5 0 25 -14 44 -31 19 -17 53 -43 74 -60 l39 -29 238 0 c131 0 240 4 243 9 3 5 -4 15 -17 24 -12 8 -38 30 -58 48 -20 19 -51 46 -70 61 -19 15 -61 48 -94 74 -33 26 -71 59 -85 73 -23 24 -45 42 -105 86 -34 25 -169 139 -190 160 -11 11 -38 32 -60 47 -69 47 -107 88 -107 114 0 27 18 54 38 54 7 0 17 6 21 13 9 13 142 132 184 163 54 40 175 139 203 167 16 16 55 47 85 70 31 22 72 56 91 75 19 18 78 68 130 110 l95 77 -255 3 c-261 3 -282 0 -321 -38 -8 -8 -40 -35 -69 -60 -29 -25 -58 -50 -64 -55 -6 -6 -40 -33 -76 -60 -36 -28 -100 -83 -144 -122 -43 -40 -82 -73 -86 -73 -26 0 -32 38 -33 217 l-2 188 -177 3 -178 2 0 -369 c0 -203 -3 -376 -6 -385 -12 -31 -42 -11 -82 54 -12 19 -31 46 -44 60 -38 42 -102 122 -133 169 -30 45 -56 78 -88 112 -10 11 -59 75 -109 142 -51 67 -110 143 -132 169 l-41 48 -140 0 c-77 0 -145 4 -150 8 -16 11 -75 89 -75 99 0 5 -9 16 -20 25 -11 10 -45 57 -77 105 -31 48 -89 131 -129 183 -39 52 -80 112 -91 132 -11 20 -37 58 -59 83 -49 59 -122 162 -171 240 -20 33 -43 66 -51 74 -20 20 -114 149 -147 203 -30 47 -48 62 -59 51z m737 -1192 c26 -10 79 -78 118 -151 13 -24 30 -50 37 -58 14 -16 15 -32 3 -51 -11 -18 -356 -18 -377 0 -8 6 -31 39 -51 73 -20 33 -39 63 -42 66 -3 3 -28 29 -55 57 l-50 52 25 10 c31 12 360 14 392 2z m228 -383 c10 -13 18 -35 19 -49 0 -15 7 -46 15 -69 11 -31 15 -86 15 -205 0 -122 -4 -172 -15 -198 -8 -20 -15 -49 -15 -64 0 -15 -7 -37 -15 -47 -8 -11 -15 -28 -15 -37 0 -26 -117 -247 -151 -286 -16 -19 -29 -37 -29 -41 -1 -4 -18 -26 -39 -50 -27 -31 -42 -41 -55 -36 -13 5 -16 14 -12 33 21 103 27 137 37 221 10 83 7 226 -5 340 -13 114 -29 206 -37 215 -5 5 -9 20 -9 35 0 14 -7 38 -15 54 -8 15 -15 35 -15 43 0 8 -6 27 -14 41 -8 15 -17 34 -20 42 -3 8 -11 22 -18 31 -6 9 -8 24 -5 33 6 14 29 16 193 16 180 0 186 -1 205 -22z"/> <path d="M2690 2666 c-13 -34 -66 -92 -108 -118 -20 -12 -39 -25 -42 -29 -3 -4 -27 -18 -54 -32 -26 -13 -44 -26 -40 -28 5 -2 599 -2 1319 1 l1310 5 0 110 0 110 -1188 3 -1187 2 -10 -24z"/> <path d="M2727 2318 c-8 -5 -6 -28 5 -80 10 -40 20 -88 23 -105 4 -18 11 -35 16 -38 5 -4 9 -28 9 -54 0 -44 14 -106 42 -186 5 -16 14 -48 18 -70 5 -22 13 -53 19 -68 6 -16 11 -56 11 -90 0 -34 5 -78 10 -97 6 -19 15 -69 21 -110 5 -41 17 -101 27 -132 l17 -58 73 -2 c39 -1 89 -2 109 -2 l37 -1 22 135 c12 74 27 155 33 180 6 25 11 63 11 85 0 22 7 51 15 65 8 14 14 39 15 57 0 17 4 34 9 38 5 3 12 19 16 35 9 40 42 41 50 3 4 -16 13 -55 21 -88 9 -33 20 -88 24 -122 5 -35 14 -72 20 -82 5 -11 10 -38 10 -61 0 -22 7 -57 15 -77 8 -19 15 -46 15 -58 0 -27 27 -107 39 -115 5 -3 51 -3 102 0 l94 5 7 62 c4 34 11 71 17 82 6 11 11 35 11 54 0 22 6 37 15 41 12 4 15 23 15 83 1 53 5 84 15 97 9 11 15 42 15 70 1 28 7 62 15 76 8 14 15 41 15 60 0 19 11 93 24 163 16 83 21 138 16 156 -5 17 -3 42 6 67 21 59 14 65 -63 62 l-68 -3 -6 -70 c-3 -38 -11 -83 -18 -98 -6 -16 -11 -43 -11 -60 0 -18 -7 -50 -15 -72 -8 -22 -14 -60 -15 -86 0 -25 -5 -50 -11 -56 -6 -6 -14 -42 -16 -80 -3 -37 -12 -80 -19 -95 -8 -15 -14 -37 -14 -48 0 -27 -40 -85 -50 -73 -9 9 -28 93 -40 173 -4 30 -13 70 -19 88 -29 83 -34 102 -46 172 -13 72 -29 228 -30 280 0 25 -1 25 -97 28 -92 3 -98 1 -112 -20 -17 -27 -33 -106 -47 -233 -24 -229 -52 -433 -62 -463 -9 -27 -16 -32 -37 -30 -23 3 -25 8 -32 73 -3 39 -14 113 -23 165 -9 52 -18 106 -19 120 -6 44 -27 124 -35 135 -5 5 -11 44 -15 85 -4 41 -11 79 -16 84 -6 6 -10 27 -10 47 0 20 -6 41 -12 47 -15 12 -145 20 -161 10z"/> <path d="M4347 2322 l-148 -3 4 -212 c8 -394 27 -881 35 -889 5 -5 56 -7 113 -6 l104 3 -3 265 c-3 291 -5 349 -17 398 -7 30 -6 32 21 32 24 0 34 -8 59 -53 16 -28 38 -72 49 -97 10 -25 24 -60 32 -77 8 -18 20 -48 28 -65 7 -18 30 -67 50 -108 34 -69 43 -86 68 -130 4 -8 11 -22 14 -30 3 -8 16 -39 27 -68 12 -30 28 -57 37 -62 8 -4 63 -7 121 -7 148 3 144 -3 134 172 -11 213 -14 304 -18 635 l-4 305 -89 2 c-49 1 -100 -1 -112 -4 -22 -5 -23 -9 -17 -47 3 -22 9 -123 11 -223 8 -258 -12 -336 -67 -270 -10 12 -18 27 -19 33 0 6 -20 52 -45 102 -25 50 -45 93 -45 97 0 8 -28 73 -40 95 -5 8 -19 35 -30 60 -12 25 -26 52 -31 60 -5 8 -12 22 -15 30 -23 61 -36 65 -207 62z"/> <path d="M890 2303 c-117 -5 -122 -7 -118 -51 l3 -37 102 -5 c77 -4 107 -9 122 -22 21 -18 22 -58 8 -848 l-2 -115 135 3 c74 2 137 6 140 8 6 7 20 411 23 716 2 167 7 230 16 242 10 12 39 16 134 18 l122 3 3 37 c2 29 -1 39 -18 48 -11 6 -25 8 -32 4 -11 -7 -398 -7 -508 0 -30 1 -89 1 -130 -1z"/> <path d="M2092 2293 c-14 -5 -77 -59 -130 -110 -19 -18 -36 -33 -38 -33 -1 0 -14 11 -27 24 -21 21 -31 24 -81 20 -32 -2 -62 -6 -67 -10 -5 -3 -8 -43 -8 -89 2 -97 -4 -111 -80 -175 -53 -45 -64 -61 -55 -85 15 -38 68 -4 253 163 40 37 93 81 117 98 24 17 62 50 84 73 22 22 42 41 45 41 10 0 168 -134 332 -281 93 -85 142 -115 167 -106 31 12 16 44 -41 93 -32 27 -90 78 -128 114 -39 36 -93 83 -120 105 -57 46 -116 97 -157 138 -28 27 -41 30 -66 20z"/> <path d="M1995 1891 c-11 -5 -38 -10 -61 -10 -26 -1 -49 -8 -64 -21 -13 -11 -27 -20 -31 -20 -24 0 -31 -92 -25 -296 7 -202 16 -263 44 -296 22 -27 151 -41 300 -35 161 7 202 17 236 58 l26 31 0 247 c0 236 -1 250 -21 275 -11 14 -28 26 -38 26 -9 0 -23 6 -29 13 -20 19 -304 43 -337 28z m186 -58 l29 -17 1 -126 c2 -149 -2 -374 -6 -379 -9 -9 -133 -17 -152 -10 -23 8 -23 10 -23 211 0 215 13 301 47 325 24 18 70 16 104 -4z"/> </g> </svg> 